<?xml version="1.0" encoding="UTF-8" standalone="no"?>
<!-- Created with Inkscape (http://www.inkscape.org/) -->

<svg
   xmlns:dc="http://purl.org/dc/elements/1.1/"
   xmlns:cc="http://creativecommons.org/ns#"
   xmlns:rdf="http://www.w3.org/1999/02/22-rdf-syntax-ns#"
   xmlns:svg="http://www.w3.org/2000/svg"
   xmlns="http://www.w3.org/2000/svg"
   xmlns:sodipodi="http://sodipodi.sourceforge.net/DTD/sodipodi-0.dtd"
   xmlns:inkscape="http://www.inkscape.org/namespaces/inkscape"
   width="143.42064mm"
   height="25.203478mm"
   viewBox="0 0 508.18337 89.303661"
   id="svg2"
   version="1.1"
   inkscape:version="0.91 r13725"
   sodipodi:docname="system.svg">
  <sodipodi:namedview
     id="base"
     pagecolor="#ffffff"
     bordercolor="#666666"
     borderopacity="1.0"
     inkscape:pageopacity="0.0"
     inkscape:pageshadow="2"
     inkscape:zoom="1.8325268"
     inkscape:cx="266.3658"
     inkscape:cy="34.660134"
     inkscape:document-units="px"
     inkscape:current-layer="layer1"
     showgrid="false"
     inkscape:window-width="1908"
     inkscape:window-height="1051"
     inkscape:window-x="5"
     inkscape:window-y="22"
     inkscape:window-maximized="0"
     fit-margin-top="0"
     fit-margin-left="0"
     fit-margin-right="0"
     fit-margin-bottom="0"
     showguides="false" />
  <defs
     id="defs4">
    <marker
       inkscape:stockid="Arrow1Lend"
       orient="auto"
       refY="0"
       refX="0"
       id="marker4959"
       style="overflow:visible"
       inkscape:isstock="true">
      <path
         id="path4961"
         d="M 0,0 5,-5 -12.5,0 5,5 0,0 Z"
         style="fill:#000000;fill-opacity:1;fill-rule:evenodd;stroke:#000000;stroke-width:1pt;stroke-opacity:1"
         transform="matrix(-0.8,0,0,-0.8,-10,0)"
         inkscape:connector-curvature="0" />
    </marker>
    <marker
       inkscape:stockid="Arrow1Lend"
       orient="auto"
       refY="0"
       refX="0"
       id="Arrow1Lend"
       style="overflow:visible"
       inkscape:isstock="true">
      <path
         id="path4678"
         d="M 0,0 5,-5 -12.5,0 5,5 0,0 Z"
         style="fill:#000000;fill-opacity:1;fill-rule:evenodd;stroke:#000000;stroke-width:1pt;stroke-opacity:1"
         transform="matrix(-0.8,0,0,-0.8,-10,0)"
         inkscape:connector-curvature="0" />
    </marker>
  </defs>
  <metadata
     id="metadata7">
    <rdf:RDF>
      <cc:Work
         rdf:about="">
        <dc:format>image/svg+xml</dc:format>
        <dc:type
           rdf:resource="http://purl.org/dc/dcmitype/StillImage" />
        <dc:title></dc:title>
      </cc:Work>
    </rdf:RDF>
  </metadata>
  <g
     inkscape:label="Layer 1"
     inkscape:groupmode="layer"
     id="layer1"
     transform="translate(-97.525646,-432.55616)">
    <rect
       style="opacity:1;fill:none;fill-opacity:1;stroke:#000000;stroke-width:1.18795121;stroke-linecap:round;stroke-linejoin:round;stroke-miterlimit:4;stroke-dasharray:none;stroke-dashoffset:0;stroke-opacity:1"
       id="rect4136"
       width="145.3089"
       height="88.1157"
       x="98.119621"
       y="433.15015"
       rx="2.6818504"
       ry="3.7981484" />
    <rect
       ry="3.8060713"
       rx="1.9121498"
       y="433.05823"
       x="327.20328"
       height="88.299507"
       width="103.60473"
       id="rect4140"
       style="opacity:1;fill:none;fill-opacity:1;stroke:#000000;stroke-width:1.00414121;stroke-linecap:round;stroke-linejoin:round;stroke-miterlimit:4;stroke-dasharray:none;stroke-dashoffset:0;stroke-opacity:1" />
    <rect
       style="opacity:1;fill:none;fill-opacity:1;stroke:#000000;stroke-width:1.00414121;stroke-linecap:round;stroke-linejoin:round;stroke-miterlimit:4;stroke-dasharray:none;stroke-dashoffset:0;stroke-opacity:1"
       id="rect4142"
       width="103.60473"
       height="88.299507"
       x="501.60223"
       y="433.05823"
       rx="1.9121498"
       ry="3.8060713" />
    <g
       id="g4237"
       transform="matrix(0.38510988,0,0,0.38510988,-8.9613938,340.12282)">
      <g
         word-spacing="normal"
         letter-spacing="normal"
         font-size-adjust="none"
         font-stretch="normal"
         font-weight="normal"
         font-variant="normal"
         font-style="normal"
         stroke-miterlimit="10.433"
         xml:space="preserve"
         transform="matrix(1.0629921,0,0,-1.0629921,-186.02362,789.27165)"
         id="g4239"
         style="font-style:normal;font-variant:normal;font-weight:normal;font-stretch:normal;letter-spacing:normal;word-spacing:normal;text-anchor:start;fill:none;fill-opacity:1;fill-rule:evenodd;stroke:#000000;stroke-linecap:butt;stroke-linejoin:miter;stroke-miterlimit:10.43299961;stroke-dasharray:none;stroke-dashoffset:0;stroke-opacity:1"><path
           id="path4241"
           d="m 616.11,447.92 0,0.04 0,0.04 0,0.05 0,0.04 0,0.03 0,0.04 0,0.04 0,0.03 0,0.04 0,0.03 -0.01,0.03 0,0.03 0,0.03 0,0.03 -0.01,0.03 0,0.02 -0.01,0.03 0,0.02 -0.01,0.03 0,0.02 -0.01,0.04 -0.02,0.04 -0.02,0.03 -0.01,0.03 -0.03,0.03 -0.02,0.03 -0.03,0.02 -0.03,0.02 -0.03,0.02 -0.04,0.01 -0.04,0.01 -0.04,0.02 -0.03,0 -0.02,0 -0.03,0.01 -0.02,0 -0.03,0.01 -0.03,0 -0.03,0 -0.03,0 -0.03,0 -0.04,0.01 -0.03,0 -0.04,0 -0.03,0 -0.04,0 -0.04,0 -0.04,0 -0.04,0 -0.04,0 -0.05,0 -0.04,0 c -2.24,-2.2 -5.39,-2.23 -6.83,-2.23 l 0,-1.25 c 0.84,0 3.14,0 5.04,0.97 l 0,-17.77 c 0,-1.16 0,-1.61 -3.48,-1.61 l -1.31,0 0,-1.25 c 0.62,0.03 4.91,0.14 6.2,0.14 1.08,0 5.47,-0.11 6.24,-0.14 l 0,1.25 -1.33,0 c -3.49,0 -3.49,0.45 -3.49,1.61 z"
           inkscape:connector-curvature="0"
           style="fill:#000000;stroke-width:0" /><polyline
           id="polyline4243"
           points="462,418 767.64,418 767.64,420.04 462,420.04 "
           style="fill:#000000;fill-rule:nonzero;stroke-width:0" /><path
           id="path4245"
           d="m 476.54,402.13 -0.09,-0.02 -0.08,-0.02 -0.08,-0.03 -0.08,-0.03 -0.07,-0.03 -0.08,-0.03 -0.07,-0.04 -0.07,-0.04 -0.06,-0.04 -0.07,-0.05 -0.06,-0.04 -0.06,-0.05 -0.05,-0.05 -0.06,-0.05 -0.05,-0.05 -0.05,-0.06 -0.05,-0.05 -0.04,-0.06 -0.04,-0.06 -0.04,-0.06 -0.03,-0.06 -0.04,-0.06 -0.03,-0.06 -0.02,-0.07 -0.03,-0.06 -0.02,-0.06 -0.01,-0.07 -0.02,-0.06 -0.01,-0.07 -0.01,-0.06 0,-0.07 0,-0.06 c 0,-0.81 0.7,-1.13 1.15,-1.13 0.35,0 1.67,0.22 1.67,1.99 0,2.26 -2.5,3.03 -4.62,3.03 -5.44,0 -6.42,-4 -6.42,-5.08 0,-1.3 0.73,-2.12 1.22,-2.55 0.9,-0.7 1.53,-0.82 3.93,-1.25 0.74,-0.14 2.97,-0.56 2.97,-2.29 0,-0.6 -0.39,-1.93 -1.84,-2.8 -1.36,-0.77 -3.08,-0.77 -3.49,-0.77 -1.4,0 -3.39,0.32 -4.18,1.47 1.15,0.14 1.92,1 1.92,1.99 0,0.87 -0.63,1.28 -1.36,1.28 -1.02,0 -2.03,-0.8 -2.03,-2.33 0,-2.09 2.23,-3.37 5.61,-3.37 6.42,0 7.61,4.39 7.61,5.75 0,3.2 -3.53,3.82 -4.82,4.07 -0.31,0.07 -1.18,0.21 -1.39,0.27 -1.29,0.25 -1.92,0.98 -1.92,1.75 0,0.8 0.63,1.73 1.39,2.23 0.94,0.6 2.16,0.66 2.75,0.66 0.74,0 2.55,-0.11 3.32,-1.3 z"
           inkscape:connector-curvature="0"
           style="fill:#000000;stroke-width:0" /><path
           id="path4247"
           d="m 495.03,403.81 -1.05,0 c -0.07,-0.48 -0.32,-2.01 -0.71,-2.26 -0.21,-0.16 -2.3,-0.16 -2.68,-0.16 l -4.87,0 c 1.64,1.22 3.48,2.61 4.98,3.61 2.24,1.55 4.33,3 4.33,5.64 0,3.19 -3.01,4.95 -6.58,4.95 -3.36,0 -5.83,-1.95 -5.83,-4.39 0,-1.29 1.1,-1.51 1.46,-1.51 0.67,0 1.47,0.45 1.47,1.47 0,0.89 -0.66,1.39 -1.43,1.46 0.69,1.13 2.15,1.88 3.82,1.88 2.4,0 4.42,-1.45 4.42,-3.89 0,-2.09 -1.44,-3.69 -3.36,-5.31 l -6.08,-5.16 c -0.25,-0.22 -0.26,-0.22 -0.3,-0.39 l 0,-0.75 11.58,0 z"
           inkscape:connector-curvature="0"
           style="fill:#000000;stroke-width:0" /><path
           id="path4249"
           d="m 515.94,396.91 10.66,0 c 0.45,0 1.28,0 1.28,0.85 0,0.86 -0.8,0.86 -1.28,0.86 l -10.66,0 0,10.7 c 0,0.45 0,1.28 -0.84,1.28 -0.88,0 -0.88,-0.8 -0.88,-1.28 l 0,-10.7 -10.68,0 c -0.46,0 -1.3,0 -1.3,-0.83 0,-0.88 0.8,-0.88 1.3,-0.88 l 10.68,0 0,-10.7 c 0,-0.45 0,-1.28 0.85,-1.28 0.87,0 0.87,0.8 0.87,1.28 z"
           inkscape:connector-curvature="0"
           style="fill:#000000;stroke-width:0" /><path
           id="path4251"
           d="m 547.99,395.38 -1.19,0 c -0.09,-0.76 -0.45,-2.83 -0.9,-3.17 -0.27,-0.2 -2.95,-0.2 -3.44,-0.2 l -6.42,0 c 3.66,3.23 4.87,4.2 6.97,5.84 2.58,2.06 4.98,4.22 4.98,7.53 0,4.22 -3.69,6.8 -8.15,6.8 -4.32,0 -7.25,-3.03 -7.25,-6.23 0,-1.79 1.5,-1.96 1.86,-1.96 0.82,0 1.84,0.6 1.84,1.85 0,0.62 -0.25,1.84 -2.06,1.84 1.07,2.47 3.45,3.23 5.09,3.23 3.48,0 5.3,-2.7 5.3,-5.53 0,-3.03 -2.16,-5.43 -3.28,-6.68 l -8.39,-8.3 c -0.36,-0.31 -0.36,-0.39 -0.36,-1.36 l 14.36,0 z"
           inkscape:connector-curvature="0"
           style="fill:#000000;stroke-width:0" /><path
           id="path4253"
           d="m 559.63,386.63 0.03,0 0.03,-0.01 0.03,-0.01 0.03,-0.01 0.04,-0.01 0.04,-0.02 0.04,-0.01 0.05,-0.01 0.05,-0.02 0.04,-0.02 0.05,-0.01 0.06,-0.02 0.05,-0.02 0.05,-0.01 0.11,-0.04 0.11,-0.04 0.1,-0.04 0.06,-0.02 0.05,-0.01 0.05,-0.02 0.05,-0.02 0.05,-0.02 0.04,-0.01 0.05,-0.02 0.04,-0.01 0.04,-0.02 0.04,-0.01 0.03,-0.01 0.03,-0.01 c 1.7,-0.6 2.16,-0.74 2.16,-1.61 0,-0.49 -0.38,-1.63 -1.57,-1.63 -0.53,0 -1.89,0.1 -3.39,0.97 -0.23,0.21 -0.31,0.21 -0.45,0.21 -0.2,0 -0.48,-0.14 -0.48,-0.49 0,-0.62 2.43,-1.67 4.32,-1.67 2.41,0 3.8,2.2 3.8,3.8 0,1.32 -0.73,2.01 -1.47,2.4 -0.28,0.14 -4.62,1.64 -5.01,1.75 -3.38,1.17 -5.27,1.8 -5.27,3.83 0,1.25 1.22,3.97 4.19,5.53 1.5,-0.48 3,-0.48 3.62,-0.48 1.25,0 3.63,0 3.63,1.29 0,1.08 -1.99,1.08 -3.2,1.08 l -0.05,-0.98 c 1.08,0 1.19,-0.03 1.84,-0.17 l 0,-0.03 c -0.48,-0.15 -0.94,-0.21 -2.12,-0.21 -0.66,0 -1.08,0 -1.74,0.21 0.91,0.2 1.22,0.2 2.02,0.2 l 0.05,0.98 c -0.85,0 -1.9,0 -3.32,-0.48 -0.95,0.76 -1.18,1.87 -1.18,2.72 0,1.98 1.42,4.42 4.04,5.64 0.8,-0.88 1.67,-0.88 2.53,-0.88 l 0,0.99 c -0.54,0 -0.97,0 -1.39,0.23 0.63,0.17 0.91,0.17 1.64,0.17 1.08,0 1.28,-0.03 1.85,-0.17 l 0,-0.03 c -0.28,-0.08 -0.69,-0.2 -2.1,-0.2 l 0,-0.99 c 1.08,0 3.46,0 3.46,1.3 0,1.08 -1.96,1.08 -3.24,1.08 -0.53,0 -1.29,0 -2.26,-0.14 0,0.03 -0.14,0.59 -0.14,1.04 0,0.38 0.06,0.8 0.14,1.19 0.03,0.03 0.06,0.17 0.06,0.24 0,0.28 -0.24,0.56 -0.55,0.56 -0.81,0 -0.81,-1.33 -0.81,-1.92 0,-0.14 0,-0.91 0.17,-1.36 -4.8,-1.28 -6.47,-4.32 -6.47,-6.58 0,-1.41 0.66,-2.75 2.3,-3.74 -3.94,-2.23 -5.06,-5.71 -5.06,-7.17 0,-3.17 3.36,-4.36 4.47,-4.75 z"
           inkscape:connector-curvature="0"
           style="fill:#000000;stroke-width:0" /><path
           id="path4255"
           d="m 581.74,386.17 -0.01,-0.05 -0.01,-0.05 -0.02,-0.06 -0.01,-0.05 -0.01,-0.06 -0.02,-0.06 -0.02,-0.11 -0.03,-0.12 -0.03,-0.13 -0.03,-0.11 -0.03,-0.12 -0.01,-0.06 -0.01,-0.05 -0.01,-0.06 -0.02,-0.05 -0.01,-0.05 -0.01,-0.05 -0.01,-0.05 -0.01,-0.04 0,-0.04 -0.01,-0.04 -0.01,-0.04 0,-0.03 -0.01,-0.03 0,-0.03 0,-0.02 0,-0.02 c 0,-0.54 0.45,-0.87 0.92,-0.87 0.38,0 0.92,0.2 1.2,0.83 0.02,0.12 0.32,1.29 0.47,1.93 0.85,3.38 0.85,3.43 0.89,3.52 0.33,0.67 2.13,4.16 5.16,4.16 1.22,0 1.75,-0.68 1.75,-1.78 0,-1.43 -1.05,-3.99 -1.63,-5.41 -0.12,-0.3 -0.25,-0.63 -0.25,-1.05 0,-1.3 1.25,-2.2 2.72,-2.2 2.67,0 4.03,3.25 4.03,3.87 0,0.35 -0.42,0.35 -0.51,0.35 -0.42,0 -0.45,-0.1 -0.6,-0.58 -0.48,-1.48 -1.62,-2.78 -2.82,-2.78 -0.57,0 -0.74,0.39 -0.74,0.94 0,0.53 0.1,0.78 0.31,1.32 0.43,1 1.58,3.83 1.58,5.21 0,1.84 -1.33,2.97 -3.68,2.97 -2.32,0 -3.94,-1.43 -4.94,-2.75 -0.22,2.54 -2.69,2.75 -3.71,2.75 -2.45,0 -3.84,-1.54 -4.73,-2.47 -0.11,2.18 -2.39,2.47 -3.02,2.47 -2.5,0 -3.21,-3.82 -3.21,-3.86 0,-0.36 0.4,-0.36 0.53,-0.36 0.42,0 0.47,0.15 0.56,0.48 0.37,1.44 0.95,2.88 2,2.88 0.84,0 1.02,-0.8 1.02,-1.32 0,-0.34 -0.25,-1.29 -0.4,-1.93 -0.18,-0.68 -0.42,-1.71 -0.54,-2.25 l -0.58,-2.22 c -0.16,-0.63 -0.42,-1.72 -0.42,-1.85 0,-0.54 0.44,-0.87 0.92,-0.87 0.37,0 0.92,0.2 1.19,0.83 0.03,0.12 0.33,1.29 0.48,1.93 0.1,0.41 0.38,1.47 0.44,1.72 0.12,0.57 0.28,1.11 0.41,1.68 0.04,0.1 0.93,1.92 2.15,3 0.41,0.34 1.45,1.28 3.08,1.28 1.27,0 1.73,-0.72 1.73,-1.78 0,-0.55 -0.25,-1.55 -0.45,-2.33 z"
           inkscape:connector-curvature="0"
           style="fill:#000000;stroke-width:0" /><path
           id="path4257"
           d="m 625.24,401.93 0,0.1 -0.01,0.1 0,0.1 -0.01,0.11 -0.02,0.1 -0.01,0.11 -0.02,0.1 -0.03,0.11 -0.02,0.1 -0.03,0.11 -0.03,0.1 -0.04,0.1 -0.04,0.1 -0.05,0.1 -0.04,0.09 -0.06,0.1 -0.05,0.09 -0.06,0.08 -0.07,0.08 -0.07,0.08 -0.07,0.08 -0.08,0.07 -0.09,0.06 -0.08,0.06 -0.1,0.05 -0.1,0.05 -0.1,0.04 -0.11,0.03 -0.11,0.03 -0.06,0.01 -0.06,0.01 -0.06,0.01 -0.07,0 -0.06,0.01 -0.07,0 c -0.84,0 -1.78,-1.03 -1.78,-1.91 0,-1.15 1.88,-1.39 1.88,-3.76 0,-2.24 -2.22,-7.25 -6.13,-7.25 -1.67,0 -3.06,1.15 -3.56,2.68 0.45,0.77 1.3,3.18 1.3,4.08 0,0.52 -0.32,1.05 -0.91,1.05 -1.78,0 -1.92,-3.77 -1.92,-4.99 -0.97,-1.26 -2.72,-2.82 -4.99,-2.82 -1.87,0 -3.26,1.7 -3.26,4.04 0,4.03 3.58,7.43 3.58,7.94 0,0.42 -0.35,0.81 -0.72,0.81 -0.36,0 -0.57,-0.18 -0.82,-0.5 -0.45,-0.51 -0.9,-1.28 -1.31,-1.98 -1.22,-2.09 -2.09,-5.05 -2.09,-7.56 0,-2.78 1.11,-5.53 4.31,-5.53 2.34,0 4.36,1.53 5.61,3.4 0.67,-2.09 2.2,-3.37 4.44,-3.37 6.12,0 8.25,10.31 8.25,13.2 z"
           inkscape:connector-curvature="0"
           style="fill:#000000;stroke-width:0" /><path
           id="path4259"
           d="m 642.39,403.81 -1.05,0 c -0.07,-0.48 -0.32,-2.01 -0.72,-2.26 -0.2,-0.16 -2.29,-0.16 -2.67,-0.16 l -4.87,0 c 1.64,1.22 3.48,2.61 4.98,3.61 2.24,1.55 4.33,3 4.33,5.64 0,3.19 -3.01,4.95 -6.58,4.95 -3.36,0 -5.83,-1.95 -5.83,-4.39 0,-1.29 1.1,-1.51 1.46,-1.51 0.67,0 1.47,0.45 1.47,1.47 0,0.89 -0.66,1.39 -1.43,1.46 0.69,1.13 2.14,1.88 3.82,1.88 2.4,0 4.42,-1.45 4.42,-3.89 0,-2.09 -1.44,-3.69 -3.36,-5.31 l -6.08,-5.16 c -0.25,-0.22 -0.26,-0.22 -0.3,-0.39 l 0,-0.75 11.58,0 z"
           inkscape:connector-curvature="0"
           style="fill:#000000;stroke-width:0" /><path
           id="path4261"
           d="m 639.94,381.25 -0.01,-0.05 -0.01,-0.05 -0.02,-0.06 -0.01,-0.05 -0.01,-0.06 -0.02,-0.06 -0.03,-0.12 -0.02,-0.12 -0.03,-0.12 -0.03,-0.12 -0.03,-0.11 -0.01,-0.06 -0.01,-0.06 -0.01,-0.05 -0.02,-0.05 -0.01,-0.05 -0.01,-0.05 -0.01,-0.05 -0.01,-0.04 0,-0.05 -0.01,-0.03 -0.01,-0.04 0,-0.03 -0.01,-0.03 0,-0.03 0,-0.02 0,-0.02 c 0,-0.55 0.45,-0.87 0.92,-0.87 0.38,0 0.92,0.2 1.2,0.82 0.02,0.13 0.31,1.3 0.47,1.94 0.84,3.38 0.84,3.42 0.89,3.52 0.33,0.67 2.13,4.15 5.16,4.15 1.22,0 1.75,-0.67 1.75,-1.78 0,-1.42 -1.05,-3.98 -1.63,-5.4 -0.12,-0.3 -0.25,-0.63 -0.25,-1.05 0,-1.3 1.25,-2.2 2.72,-2.2 2.67,0 4.03,3.25 4.03,3.87 0,0.35 -0.42,0.35 -0.51,0.35 -0.42,0 -0.45,-0.1 -0.6,-0.58 -0.48,-1.49 -1.62,-2.78 -2.82,-2.78 -0.57,0 -0.74,0.39 -0.74,0.93 0,0.53 0.09,0.79 0.31,1.33 0.43,1 1.58,3.83 1.58,5.2 0,1.85 -1.33,2.97 -3.68,2.97 -2.32,0 -3.94,-1.42 -4.94,-2.75 -0.22,2.55 -2.69,2.75 -3.71,2.75 -2.45,0 -3.84,-1.53 -4.73,-2.47 -0.11,2.19 -2.39,2.47 -3.02,2.47 -2.5,0 -3.22,-3.81 -3.22,-3.86 0,-0.35 0.41,-0.35 0.54,-0.35 0.42,0 0.46,0.15 0.56,0.48 0.37,1.44 0.95,2.87 2,2.87 0.84,0 1.02,-0.79 1.02,-1.31 0,-0.34 -0.25,-1.3 -0.4,-1.94 -0.18,-0.67 -0.42,-1.7 -0.54,-2.25 l -0.58,-2.21 c -0.16,-0.63 -0.42,-1.72 -0.42,-1.85 0,-0.55 0.44,-0.87 0.92,-0.87 0.37,0 0.92,0.2 1.19,0.82 0.03,0.13 0.33,1.3 0.48,1.94 0.1,0.41 0.38,1.47 0.44,1.72 0.12,0.56 0.28,1.11 0.41,1.67 0.04,0.11 0.93,1.93 2.15,3 0.41,0.35 1.45,1.28 3.08,1.28 1.27,0 1.73,-0.71 1.73,-1.78 0,-0.54 -0.25,-1.54 -0.45,-2.33 z"
           inkscape:connector-curvature="0"
           style="fill:#000000;stroke-width:0" /><path
           id="path4263"
           d="m 674.66,402.13 -0.09,-0.02 -0.08,-0.02 -0.08,-0.03 -0.08,-0.03 -0.07,-0.03 -0.08,-0.03 -0.07,-0.04 -0.07,-0.04 -0.06,-0.04 -0.07,-0.05 -0.06,-0.04 -0.06,-0.05 -0.05,-0.05 -0.06,-0.05 -0.05,-0.05 -0.05,-0.06 -0.04,-0.05 -0.05,-0.06 -0.04,-0.06 -0.04,-0.06 -0.03,-0.06 -0.03,-0.06 -0.03,-0.06 -0.03,-0.07 -0.02,-0.06 -0.02,-0.06 -0.02,-0.07 -0.02,-0.06 -0.01,-0.07 -0.01,-0.06 0,-0.07 0,-0.06 c 0,-0.81 0.7,-1.13 1.15,-1.13 0.35,0 1.68,0.22 1.68,1.99 0,2.26 -2.5,3.03 -4.63,3.03 -5.44,0 -6.42,-4 -6.42,-5.08 0,-1.3 0.73,-2.12 1.22,-2.55 0.9,-0.7 1.53,-0.82 3.93,-1.25 0.74,-0.14 2.97,-0.56 2.97,-2.29 0,-0.6 -0.39,-1.93 -1.84,-2.8 -1.36,-0.77 -3.08,-0.77 -3.48,-0.77 -1.41,0 -3.39,0.32 -4.19,1.47 1.15,0.14 1.92,1 1.92,1.99 0,0.87 -0.62,1.28 -1.36,1.28 -1.02,0 -2.03,-0.8 -2.03,-2.33 0,-2.09 2.23,-3.37 5.61,-3.37 6.42,0 7.61,4.39 7.61,5.75 0,3.2 -3.53,3.82 -4.81,4.07 -0.32,0.07 -1.19,0.21 -1.4,0.27 -1.29,0.25 -1.92,0.98 -1.92,1.75 0,0.8 0.63,1.73 1.39,2.23 0.94,0.6 2.16,0.66 2.75,0.66 0.74,0 2.55,-0.11 3.32,-1.3 z"
           inkscape:connector-curvature="0"
           style="fill:#000000;stroke-width:0" /><path
           id="path4265"
           d="m 694.62,396.91 10.66,0 c 0.45,0 1.28,0 1.28,0.85 0,0.86 -0.8,0.86 -1.28,0.86 l -10.66,0 0,10.7 c 0,0.45 0,1.28 -0.84,1.28 -0.88,0 -0.88,-0.8 -0.88,-1.28 l 0,-10.7 -10.68,0 c -0.46,0 -1.3,0 -1.3,-0.83 0,-0.88 0.8,-0.88 1.3,-0.88 l 10.68,0 0,-10.7 c 0,-0.45 0,-1.28 0.85,-1.28 0.87,0 0.87,0.8 0.87,1.28 z"
           inkscape:connector-curvature="0"
           style="fill:#000000;stroke-width:0" /><path
           id="path4267"
           d="m 732.88,401.93 -0.01,0.1 0,0.1 -0.01,0.1 -0.01,0.11 -0.01,0.1 -0.02,0.11 -0.02,0.1 -0.02,0.11 -0.02,0.1 -0.03,0.11 -0.04,0.1 -0.03,0.1 -0.04,0.1 -0.05,0.1 -0.05,0.09 -0.05,0.1 -0.06,0.09 -0.06,0.08 -0.06,0.08 -0.07,0.08 -0.08,0.08 -0.08,0.07 -0.08,0.06 -0.09,0.06 -0.09,0.05 -0.1,0.05 -0.1,0.04 -0.11,0.03 -0.12,0.03 -0.05,0.01 -0.06,0.01 -0.07,0.01 -0.06,0 -0.06,0.01 -0.07,0 c -0.84,0 -1.78,-1.03 -1.78,-1.91 0,-1.15 1.87,-1.39 1.87,-3.76 0,-2.24 -2.21,-7.25 -6.12,-7.25 -1.67,0 -3.06,1.15 -3.56,2.68 0.45,0.77 1.29,3.18 1.29,4.08 0,0.52 -0.31,1.05 -0.9,1.05 -1.78,0 -1.92,-3.77 -1.92,-4.99 -0.97,-1.26 -2.72,-2.82 -4.99,-2.82 -1.87,0 -3.27,1.7 -3.27,4.04 0,4.03 3.58,7.43 3.58,7.94 0,0.42 -0.34,0.81 -0.72,0.81 -0.36,0 -0.56,-0.18 -0.81,-0.5 -0.45,-0.51 -0.9,-1.28 -1.31,-1.98 -1.22,-2.09 -2.09,-5.05 -2.09,-7.56 0,-2.78 1.11,-5.53 4.31,-5.53 2.34,0 4.36,1.53 5.61,3.4 0.67,-2.09 2.2,-3.37 4.43,-3.37 6.13,0 8.26,10.31 8.26,13.2 z"
           inkscape:connector-curvature="0"
           style="fill:#000000;stroke-width:0" /><path
           id="path4269"
           d="m 750.03,403.81 -1.05,0 c -0.07,-0.48 -0.32,-2.01 -0.71,-2.26 -0.21,-0.16 -2.3,-0.16 -2.68,-0.16 l -4.87,0 c 1.64,1.22 3.48,2.61 4.98,3.61 2.24,1.55 4.33,3 4.33,5.64 0,3.19 -3.01,4.95 -6.58,4.95 -3.36,0 -5.83,-1.95 -5.83,-4.39 0,-1.29 1.1,-1.51 1.46,-1.51 0.67,0 1.47,0.45 1.47,1.47 0,0.89 -0.66,1.39 -1.43,1.46 0.69,1.13 2.15,1.88 3.82,1.88 2.4,0 4.42,-1.45 4.42,-3.89 0,-2.09 -1.44,-3.69 -3.36,-5.31 l -6.08,-5.16 c -0.25,-0.22 -0.26,-0.22 -0.3,-0.39 l 0,-0.75 11.58,0 z"
           inkscape:connector-curvature="0"
           style="fill:#000000;stroke-width:0" /><path
           id="path4271"
           d="m 747.58,381.25 -0.01,-0.05 -0.01,-0.05 -0.02,-0.06 -0.01,-0.05 -0.01,-0.06 -0.02,-0.06 -0.02,-0.12 -0.03,-0.12 -0.03,-0.12 -0.03,-0.12 -0.03,-0.11 -0.01,-0.06 -0.01,-0.06 -0.01,-0.05 -0.02,-0.05 -0.01,-0.05 -0.01,-0.05 -0.01,-0.05 -0.01,-0.04 0,-0.05 -0.01,-0.03 -0.01,-0.04 0,-0.03 -0.01,-0.03 0,-0.03 0,-0.02 0,-0.02 c 0,-0.55 0.45,-0.87 0.92,-0.87 0.37,0 0.92,0.2 1.2,0.82 0.02,0.13 0.32,1.3 0.47,1.94 0.85,3.38 0.85,3.42 0.89,3.52 0.33,0.67 2.13,4.15 5.16,4.15 1.22,0 1.75,-0.67 1.75,-1.78 0,-1.42 -1.05,-3.98 -1.63,-5.4 -0.12,-0.3 -0.25,-0.63 -0.25,-1.05 0,-1.3 1.25,-2.2 2.72,-2.2 2.68,0 4.03,3.25 4.03,3.87 0,0.35 -0.42,0.35 -0.51,0.35 -0.42,0 -0.46,-0.1 -0.59,-0.58 -0.49,-1.49 -1.63,-2.78 -2.83,-2.78 -0.57,0 -0.74,0.39 -0.74,0.93 0,0.53 0.1,0.79 0.32,1.33 0.42,1 1.57,3.83 1.57,5.2 0,1.85 -1.32,2.97 -3.69,2.97 -2.31,0 -3.93,-1.42 -4.93,-2.75 -0.22,2.55 -2.69,2.75 -3.7,2.75 -2.46,0 -3.85,-1.53 -4.74,-2.47 -0.11,2.19 -2.39,2.47 -3.01,2.47 -2.5,0 -3.22,-3.81 -3.22,-3.86 0,-0.35 0.4,-0.35 0.53,-0.35 0.42,0 0.47,0.15 0.56,0.48 0.38,1.44 0.95,2.87 2,2.87 0.84,0 1.01,-0.79 1.01,-1.31 0,-0.34 -0.25,-1.3 -0.38,-1.94 -0.19,-0.67 -0.43,-1.7 -0.55,-2.25 l -0.58,-2.21 c -0.16,-0.63 -0.42,-1.72 -0.42,-1.85 0,-0.55 0.43,-0.87 0.92,-0.87 0.38,0 0.92,0.2 1.19,0.82 0.03,0.13 0.32,1.3 0.48,1.94 0.09,0.41 0.38,1.47 0.44,1.72 0.12,0.56 0.28,1.11 0.4,1.67 0.05,0.11 0.94,1.93 2.16,3 0.41,0.35 1.46,1.28 3.08,1.28 1.26,0 1.73,-0.71 1.73,-1.78 0,-0.54 -0.25,-1.54 -0.45,-2.33 z"
           inkscape:connector-curvature="0"
           style="fill:#000000;stroke-width:0" /></g>    </g>
    <path
       style="fill:none;fill-rule:evenodd;stroke:#000000;stroke-width:1px;stroke-linecap:butt;stroke-linejoin:miter;stroke-opacity:1;marker-end:url(#Arrow1Lend)"
       d="m 240.85588,474.79138 85.38704,0"
       id="path4667"
       inkscape:connector-type="polyline"
       inkscape:connector-curvature="0" />
    <path
       style="fill:none;fill-rule:evenodd;stroke:#000000;stroke-width:1px;stroke-linecap:butt;stroke-linejoin:miter;stroke-opacity:1;marker-end:url(#marker4959)"
       d="m 429.35179,473.18031 72.49843,0"
       id="path4669"
       inkscape:connector-type="polyline"
       inkscape:connector-curvature="0" />
    <g
       id="g5088"
       transform="matrix(4.5855798,0,0,4.5855798,181.39881,-1028.6521)">
      <g
         id="content"
         transform="matrix(0.12757666,0,0,-0.12757666,-22.325916,381.13753)"
         xml:space="preserve"
         stroke-miterlimit="10.433"
         font-style="normal"
         font-variant="normal"
         font-weight="normal"
         font-stretch="normal"
         font-size-adjust="none"
         letter-spacing="normal"
         word-spacing="normal"
         style="font-style:normal;font-variant:normal;font-weight:normal;font-stretch:normal;letter-spacing:normal;word-spacing:normal;text-anchor:start;fill:none;fill-opacity:1;fill-rule:evenodd;stroke:#000000;stroke-linecap:butt;stroke-linejoin:miter;stroke-miterlimit:10.43299961;stroke-dasharray:none;stroke-dashoffset:0;stroke-opacity:1"><path
           d="m 513.99,447.92 0,0.04 0,0.04 0,0.05 0,0.04 0,0.03 0,0.04 0,0.04 0,0.03 0,0.04 -0.01,0.03 0,0.03 0,0.03 0,0.03 -0.01,0.03 0,0.03 0,0.02 -0.01,0.03 0,0.02 -0.01,0.03 0,0.02 -0.01,0.04 -0.02,0.04 -0.02,0.03 -0.02,0.03 -0.02,0.03 -0.02,0.03 -0.03,0.02 -0.03,0.02 -0.03,0.02 -0.04,0.01 -0.04,0.01 -0.05,0.02 -0.02,0 -0.02,0 -0.03,0.01 -0.03,0 -0.02,0.01 -0.03,0 -0.03,0 -0.03,0 -0.03,0 -0.04,0.01 -0.03,0 -0.04,0 -0.03,0 -0.04,0 -0.04,0 -0.04,0 -0.04,0 -0.05,0 -0.04,0 -0.04,0 c -2.24,-2.2 -5.4,-2.23 -6.83,-2.23 l 0,-1.25 c 0.84,0 3.14,0 5.04,0.97 l 0,-17.77 c 0,-1.16 0,-1.61 -3.48,-1.61 l -1.31,0 0,-1.25 c 0.62,0.03 4.9,0.14 6.2,0.14 1.08,0 5.47,-0.11 6.23,-0.14 l 0,1.25 -1.32,0 c -3.49,0 -3.49,0.45 -3.49,1.61 z"
           id="path5091"
           inkscape:connector-curvature="0"
           style="fill:#000000;stroke-width:0" /><polyline
           points="462,418 563.4,418 563.4,420.04 462,420.04 "
           id="polyline5093"
           style="fill:#000000;fill-rule:nonzero;stroke-width:0" /><path
           d="m 476.54,399.73 -0.09,-0.02 -0.08,-0.02 -0.08,-0.03 -0.08,-0.03 -0.07,-0.03 -0.08,-0.03 -0.07,-0.04 -0.07,-0.04 -0.06,-0.04 -0.07,-0.04 -0.06,-0.05 -0.06,-0.05 -0.05,-0.05 -0.06,-0.05 -0.05,-0.05 -0.05,-0.06 -0.05,-0.05 -0.04,-0.06 -0.04,-0.06 -0.04,-0.06 -0.03,-0.06 -0.04,-0.06 -0.03,-0.06 -0.02,-0.07 -0.03,-0.06 -0.02,-0.06 -0.01,-0.07 -0.02,-0.06 -0.01,-0.07 -0.01,-0.06 0,-0.07 0,-0.06 c 0,-0.81 0.7,-1.13 1.15,-1.13 0.35,0 1.67,0.22 1.67,1.99 0,2.26 -2.5,3.03 -4.62,3.03 -5.44,0 -6.42,-4 -6.42,-5.08 0,-1.3 0.73,-2.12 1.22,-2.54 0.9,-0.71 1.53,-0.83 3.93,-1.26 0.74,-0.14 2.97,-0.56 2.97,-2.29 0,-0.6 -0.39,-1.92 -1.84,-2.8 -1.36,-0.76 -3.08,-0.76 -3.49,-0.76 -1.4,0 -3.39,0.31 -4.18,1.46 1.15,0.15 1.92,1 1.92,1.99 0,0.87 -0.63,1.28 -1.36,1.28 -1.02,0 -2.03,-0.8 -2.03,-2.33 0,-2.09 2.23,-3.37 5.61,-3.37 6.42,0 7.61,4.39 7.61,5.75 0,3.2 -3.53,3.83 -4.82,4.07 -0.31,0.07 -1.18,0.21 -1.39,0.27 -1.29,0.25 -1.92,0.99 -1.92,1.75 0,0.8 0.63,1.74 1.39,2.24 0.94,0.59 2.16,0.65 2.75,0.65 0.74,0 2.55,-0.11 3.32,-1.3 z"
           id="path5095"
           inkscape:connector-curvature="0"
           style="fill:#000000;stroke-width:0" /><path
           d="m 496.5,394.52 10.66,0 c 0.45,0 1.28,0 1.28,0.84 0,0.86 -0.8,0.86 -1.28,0.86 l -10.66,0 0,10.7 c 0,0.46 0,1.28 -0.84,1.28 -0.88,0 -0.88,-0.79 -0.88,-1.28 l 0,-10.7 -10.69,0 c -0.45,0 -1.29,0 -1.29,-0.83 0,-0.87 0.79,-0.87 1.29,-0.87 l 10.69,0 0,-10.71 c 0,-0.45 0,-1.28 0.84,-1.28 0.88,0 0.88,0.8 0.88,1.28 z"
           id="path5097"
           inkscape:connector-curvature="0"
           style="fill:#000000;stroke-width:0" /><path
           d="m 525.03,396.61 0.33,-0.76 0.33,-0.77 0.34,-0.78 0.33,-0.78 0.32,-0.78 0.32,-0.76 0.15,-0.37 0.16,-0.36 0.14,-0.36 0.15,-0.34 0.14,-0.34 0.14,-0.32 0.13,-0.31 0.13,-0.3 0.12,-0.29 0.12,-0.26 0.11,-0.26 0.1,-0.23 0.1,-0.22 0.09,-0.19 0.08,-0.18 0.07,-0.15 0.07,-0.13 0.06,-0.11 0.05,-0.08 0.04,-0.06 c 0.65,-0.82 1.29,-0.82 1.84,-0.82 l 0.7,0 c 0.66,0 1.02,0 1.02,0.4 0,0.19 -0.11,0.28 -0.19,0.36 -0.41,0.38 -0.77,1.19 -0.91,1.5 l -8.5,20.06 c -0.23,0.63 -0.93,2.21 -4.62,2.21 -0.42,0 -0.91,0 -0.91,-0.5 0,-0.41 0.35,-0.45 0.52,-0.49 0.73,-0.09 1.39,-0.2 2.26,-2.18 l 4.14,-9.77 -10.26,-9.27 c -0.42,-0.34 -0.71,-0.62 -0.71,-1.21 0,-0.83 0.71,-1.19 1.19,-1.19 0.66,0 1.08,0.45 1.19,0.56 z"
           id="path5099"
           inkscape:connector-curvature="0"
           style="fill:#000000;stroke-width:0" /><path
           d="m 552.71,415.8 -0.01,0.05 -0.01,0.04 -0.01,0.05 -0.01,0.04 -0.01,0.04 -0.01,0.04 -0.01,0.03 -0.01,0.04 -0.01,0.03 -0.01,0.03 -0.02,0.03 -0.01,0.03 -0.02,0.02 -0.02,0.03 -0.01,0.02 -0.02,0.02 -0.02,0.02 -0.03,0.02 -0.02,0.01 -0.03,0.02 -0.02,0.01 -0.03,0.01 -0.03,0.01 -0.03,0.01 -0.04,0.01 -0.03,0.01 -0.04,0 -0.04,0.01 -0.05,0 -0.04,0 -0.05,0 -0.05,0 c -0.59,0 -0.75,-0.2 -1,-0.57 l -9.76,-14.16 c -1.04,-1.52 -1.91,-1.91 -3.54,-1.98 -0.46,-0.04 -0.46,-0.68 -0.46,-0.71 0,-0.34 0.29,-0.42 0.39,-0.42 0.36,0 0.78,0.08 1.12,0.08 0.42,0 0.84,0.01 1.27,0.01 0.48,0 0.92,-0.01 1.37,-0.01 0.45,0 0.97,-0.08 1.42,-0.08 0.18,0 0.6,0 0.6,0.7 0,0.39 -0.38,0.43 -0.47,0.43 -0.2,0 -1.17,0.04 -1.17,0.64 0,0.29 0.29,0.71 0.47,0.97 l 1.82,2.67 c 0.13,0.15 0.14,0.17 0.61,0.17 l 7.57,0 -0.21,1.12 -7.08,0 5.57,8.07 1.51,-8.07 0.21,-1.12 c 0.04,-0.3 0.06,-0.42 0.14,-0.72 0.07,-0.45 0.57,-2.94 0.57,-3.19 0,-0.54 -1.57,-0.54 -1.7,-0.54 -0.37,0 -0.76,0 -0.76,-0.71 0,-0.25 0.17,-0.42 0.45,-0.42 0.51,0 1.11,0.08 1.65,0.08 0.61,0 1.18,0.01 1.79,0.01 0.51,0 1.06,-0.01 1.59,-0.01 0.5,0 1.06,-0.08 1.56,-0.08 0.42,0 0.6,0.3 0.6,0.7 0,0.43 -0.39,0.43 -0.74,0.43 -1.65,0 -1.67,0.17 -1.78,0.71 z"
           id="path5101"
           inkscape:connector-curvature="0"
           style="fill:#000000;stroke-width:0" /><path
           d="m 542.82,384.09 0.21,0 0.21,-0.02 0.2,-0.02 0.2,-0.03 0.2,-0.03 0.18,-0.05 0.19,-0.05 0.17,-0.06 0.18,-0.07 0.16,-0.08 0.16,-0.08 0.16,-0.09 0.14,-0.1 0.14,-0.11 0.14,-0.11 0.13,-0.12 0.12,-0.13 0.11,-0.13 0.11,-0.15 0.1,-0.14 0.1,-0.16 0.08,-0.16 0.08,-0.17 0.07,-0.18 0.06,-0.18 0.06,-0.2 0.04,-0.19 0.04,-0.2 0.03,-0.21 0.03,-0.22 0.01,-0.22 0,-0.23 c 0,-2.55 -1.56,-3.89 -3.78,-3.89 -0.28,0 -3.25,0 -4.51,1.3 1.03,0.15 1.32,0.92 1.32,1.51 0,0.92 -0.7,1.53 -1.53,1.53 -0.79,0 -1.53,-0.53 -1.53,-1.58 0,-2.59 2.94,-3.78 6.31,-3.78 4.1,0 6.64,2.47 6.64,4.88 0,2.04 -1.82,3.79 -4.67,4.44 3,0.96 3.8,2.87 3.8,4.26 0,2.05 -2.55,3.56 -5.69,3.56 -3.06,0 -5.53,-1.29 -5.53,-3.54 0,-1.18 0.95,-1.47 1.42,-1.47 0.72,0 1.42,0.53 1.42,1.42 0,0.58 -0.29,1.28 -1.18,1.42 1.06,1.14 3.28,1.22 3.79,1.22 1.83,0 3.13,-0.92 3.13,-2.61 0,-1.45 -0.95,-3.72 -3.56,-3.86 -0.71,-0.03 -0.8,-0.05 -1.46,-0.08 -0.26,-0.03 -0.54,-0.04 -0.54,-0.42 0,-0.42 0.25,-0.42 0.7,-0.42 z"
           id="path5103"
           inkscape:connector-curvature="0"
           style="fill:#000000;stroke-width:0" /></g>    </g>
    <g
       id="g5221"
       transform="matrix(4.3746633,0,0,4.3746633,367.56354,-959.79723)">
      <g
         word-spacing="normal"
         letter-spacing="normal"
         font-size-adjust="none"
         font-stretch="normal"
         font-weight="normal"
         font-variant="normal"
         font-style="normal"
         stroke-miterlimit="10.433"
         xml:space="preserve"
         transform="matrix(0.12757666,0,0,-0.12757666,-22.325916,381.13753)"
         id="g5223"
         style="font-style:normal;font-variant:normal;font-weight:normal;font-stretch:normal;letter-spacing:normal;word-spacing:normal;text-anchor:start;fill:none;fill-opacity:1;fill-rule:evenodd;stroke:#000000;stroke-linecap:butt;stroke-linejoin:miter;stroke-miterlimit:10.43299961;stroke-dasharray:none;stroke-dashoffset:0;stroke-opacity:1"><path
           id="path5225"
           d="m 513.99,447.92 0,0.04 0,0.04 0,0.05 0,0.04 0,0.03 0,0.04 0,0.04 0,0.03 0,0.04 -0.01,0.03 0,0.03 0,0.03 0,0.03 -0.01,0.03 0,0.03 0,0.02 -0.01,0.03 0,0.02 -0.01,0.03 0,0.02 -0.01,0.04 -0.02,0.04 -0.02,0.03 -0.02,0.03 -0.02,0.03 -0.02,0.03 -0.03,0.02 -0.03,0.02 -0.03,0.02 -0.04,0.01 -0.04,0.01 -0.05,0.02 -0.02,0 -0.02,0 -0.03,0.01 -0.03,0 -0.02,0.01 -0.03,0 -0.03,0 -0.03,0 -0.03,0 -0.04,0.01 -0.03,0 -0.04,0 -0.03,0 -0.04,0 -0.04,0 -0.04,0 -0.04,0 -0.05,0 -0.04,0 -0.04,0 c -2.24,-2.2 -5.4,-2.23 -6.83,-2.23 l 0,-1.25 c 0.84,0 3.14,0 5.04,0.97 l 0,-17.77 c 0,-1.16 0,-1.61 -3.48,-1.61 l -1.31,0 0,-1.25 c 0.62,0.03 4.9,0.14 6.2,0.14 1.08,0 5.47,-0.11 6.23,-0.14 l 0,1.25 -1.32,0 c -3.49,0 -3.49,0.45 -3.49,1.61 z"
           inkscape:connector-curvature="0"
           style="fill:#000000;stroke-width:0" /><polyline
           id="polyline5227"
           points="462,418 563.4,418 563.4,420.04 462,420.04 "
           style="fill:#000000;fill-rule:nonzero;stroke-width:0" /><path
           id="path5229"
           d="m 476.54,399.73 -0.09,-0.02 -0.08,-0.02 -0.08,-0.03 -0.08,-0.03 -0.07,-0.03 -0.08,-0.03 -0.07,-0.04 -0.07,-0.04 -0.06,-0.04 -0.07,-0.04 -0.06,-0.05 -0.06,-0.05 -0.05,-0.05 -0.06,-0.05 -0.05,-0.05 -0.05,-0.06 -0.05,-0.05 -0.04,-0.06 -0.04,-0.06 -0.04,-0.06 -0.03,-0.06 -0.04,-0.06 -0.03,-0.06 -0.02,-0.07 -0.03,-0.06 -0.02,-0.06 -0.01,-0.07 -0.02,-0.06 -0.01,-0.07 -0.01,-0.06 0,-0.07 0,-0.06 c 0,-0.81 0.7,-1.13 1.15,-1.13 0.35,0 1.67,0.22 1.67,1.99 0,2.26 -2.5,3.03 -4.62,3.03 -5.44,0 -6.42,-4 -6.42,-5.08 0,-1.3 0.73,-2.12 1.22,-2.54 0.9,-0.71 1.53,-0.83 3.93,-1.26 0.74,-0.14 2.97,-0.56 2.97,-2.29 0,-0.6 -0.39,-1.92 -1.84,-2.8 -1.36,-0.76 -3.08,-0.76 -3.49,-0.76 -1.4,0 -3.39,0.31 -4.18,1.46 1.15,0.15 1.92,1 1.92,1.99 0,0.87 -0.63,1.28 -1.36,1.28 -1.02,0 -2.03,-0.8 -2.03,-2.33 0,-2.09 2.23,-3.37 5.61,-3.37 6.42,0 7.61,4.39 7.61,5.75 0,3.2 -3.53,3.83 -4.82,4.07 -0.31,0.07 -1.18,0.21 -1.39,0.27 -1.29,0.25 -1.92,0.99 -1.92,1.75 0,0.8 0.63,1.74 1.39,2.24 0.94,0.59 2.16,0.65 2.75,0.65 0.74,0 2.55,-0.11 3.32,-1.3 z"
           inkscape:connector-curvature="0"
           style="fill:#000000;stroke-width:0" /><path
           id="path5231"
           d="m 496.5,394.52 10.66,0 c 0.45,0 1.28,0 1.28,0.84 0,0.86 -0.8,0.86 -1.28,0.86 l -10.66,0 0,10.7 c 0,0.46 0,1.28 -0.84,1.28 -0.88,0 -0.88,-0.79 -0.88,-1.28 l 0,-10.7 -10.69,0 c -0.45,0 -1.29,0 -1.29,-0.83 0,-0.87 0.79,-0.87 1.29,-0.87 l 10.69,0 0,-10.71 c 0,-0.45 0,-1.28 0.84,-1.28 0.88,0 0.88,0.8 0.88,1.28 z"
           inkscape:connector-curvature="0"
           style="fill:#000000;stroke-width:0" /><path
           id="path5233"
           d="m 525.03,396.61 0.33,-0.76 0.33,-0.77 0.34,-0.78 0.33,-0.78 0.32,-0.78 0.32,-0.76 0.15,-0.37 0.16,-0.36 0.14,-0.36 0.15,-0.34 0.14,-0.34 0.14,-0.32 0.13,-0.31 0.13,-0.3 0.12,-0.29 0.12,-0.26 0.11,-0.26 0.1,-0.23 0.1,-0.22 0.09,-0.19 0.08,-0.18 0.07,-0.15 0.07,-0.13 0.06,-0.11 0.05,-0.08 0.04,-0.06 c 0.65,-0.82 1.29,-0.82 1.84,-0.82 l 0.7,0 c 0.66,0 1.02,0 1.02,0.4 0,0.19 -0.11,0.28 -0.19,0.36 -0.41,0.38 -0.77,1.19 -0.91,1.5 l -8.5,20.06 c -0.23,0.63 -0.93,2.21 -4.62,2.21 -0.42,0 -0.91,0 -0.91,-0.5 0,-0.41 0.35,-0.45 0.52,-0.49 0.73,-0.09 1.39,-0.2 2.26,-2.18 l 4.14,-9.77 -10.26,-9.27 c -0.42,-0.34 -0.71,-0.62 -0.71,-1.21 0,-0.83 0.71,-1.19 1.19,-1.19 0.66,0 1.08,0.45 1.19,0.56 z"
           inkscape:connector-curvature="0"
           style="fill:#000000;stroke-width:0" /><path
           id="path5235"
           d="m 552.71,415.8 -0.01,0.05 -0.01,0.04 -0.01,0.05 -0.01,0.04 -0.01,0.04 -0.01,0.04 -0.01,0.03 -0.01,0.04 -0.01,0.03 -0.01,0.03 -0.02,0.03 -0.01,0.03 -0.02,0.02 -0.02,0.03 -0.01,0.02 -0.02,0.02 -0.02,0.02 -0.03,0.02 -0.02,0.01 -0.03,0.02 -0.02,0.01 -0.03,0.01 -0.03,0.01 -0.03,0.01 -0.04,0.01 -0.03,0.01 -0.04,0 -0.04,0.01 -0.05,0 -0.04,0 -0.05,0 -0.05,0 c -0.59,0 -0.75,-0.2 -1,-0.57 l -9.76,-14.16 c -1.04,-1.52 -1.91,-1.91 -3.54,-1.98 -0.46,-0.04 -0.46,-0.68 -0.46,-0.71 0,-0.34 0.29,-0.42 0.39,-0.42 0.36,0 0.78,0.08 1.12,0.08 0.42,0 0.84,0.01 1.27,0.01 0.48,0 0.92,-0.01 1.37,-0.01 0.45,0 0.97,-0.08 1.42,-0.08 0.18,0 0.6,0 0.6,0.7 0,0.39 -0.38,0.43 -0.47,0.43 -0.2,0 -1.17,0.04 -1.17,0.64 0,0.29 0.29,0.71 0.47,0.97 l 1.82,2.67 c 0.13,0.15 0.14,0.17 0.61,0.17 l 7.57,0 -0.21,1.12 -7.08,0 5.57,8.07 1.51,-8.07 0.21,-1.12 c 0.04,-0.3 0.06,-0.42 0.14,-0.72 0.07,-0.45 0.57,-2.94 0.57,-3.19 0,-0.54 -1.57,-0.54 -1.7,-0.54 -0.37,0 -0.76,0 -0.76,-0.71 0,-0.25 0.17,-0.42 0.45,-0.42 0.51,0 1.11,0.08 1.65,0.08 0.61,0 1.18,0.01 1.79,0.01 0.51,0 1.06,-0.01 1.59,-0.01 0.5,0 1.06,-0.08 1.56,-0.08 0.42,0 0.6,0.3 0.6,0.7 0,0.43 -0.39,0.43 -0.74,0.43 -1.65,0 -1.67,0.17 -1.78,0.71 z"
           inkscape:connector-curvature="0"
           style="fill:#000000;stroke-width:0" /><path
           id="path5237"
           d="m 549.98,379.9 0,1.1 -3.13,0 0,10.96 c 0,0.6 -0.01,0.74 -0.67,0.74 -0.5,0 -0.52,-0.02 -0.8,-0.38 l -9.22,-11.32 0,-1.1 8.3,0 0.2,1.1 -7.32,0 7.32,9.01 0,-9.01 -0.2,-1.1 0,-1.94 c 0,-0.78 0,-1.03 -2.16,-1.03 l -0.87,0 0,-1.09 c 1.17,0.05 2.78,0.09 4.23,0.09 1.44,0 3.04,-0.04 4.24,-0.09 l 0,1.09 -0.88,0 c -2.17,0 -2.17,0.25 -2.17,1.03 l 0,1.94 z"
           inkscape:connector-curvature="0"
           style="fill:#000000;stroke-width:0" /></g>    </g>
  </g>
</svg>
